<svg xmlns="http://www.w3.org/2000/svg" width="20.29" height="18.323" viewBox="0 0 20.29 18.323"><defs><style>.a{fill:#bbbbc7;}.b{fill:none;stroke:#bbbbc7;stroke-linecap:round;stroke-width:1.3px;}</style></defs><g transform="translate(-318.006 -327.589)"><g transform="translate(318.006 330.493)"><g transform="translate(0 0)"><g transform="translate(0 0)"><path class="a" d="M20.16,98.906c-.181-.248-4.5-6.071-10.016-6.071S.31,98.658.129,98.906a.67.67,0,0,0,0,.79c.181.248,4.5,6.071,10.016,6.071S19.979,99.943,20.16,99.7A.669.669,0,0,0,20.16,98.906Zm-10.016,5.523c-4.063,0-7.582-3.865-8.624-5.129,1.04-1.265,4.552-5.128,8.624-5.128s7.582,3.864,8.624,5.129C17.728,100.566,14.216,104.429,10.145,104.429Z" transform="translate(0 -92.835)"/></g></g><g transform="translate(6.131 2.453)"><g transform="translate(0 0)"><path class="a" d="M158.735,154.725a4.013,4.013,0,1,0,4.013,4.013A4.018,4.018,0,0,0,158.735,154.725Zm0,6.689a2.675,2.675,0,1,1,2.675-2.675A2.678,2.678,0,0,1,158.735,161.414Z" transform="translate(-154.722 -154.725)"/></g></g></g><line class="b" y1="16.5" x2="12.692" transform="translate(322.441 328.5)"/></g></svg>