<svg xmlns="http://www.w3.org/2000/svg" width="20.402" height="13.004" viewBox="0 0 20.402 13.004"><defs><style>.a{fill:#bbbbc7;}</style></defs><g transform="translate(0 -92.835)"><g transform="translate(0 92.835)"><g transform="translate(0 0)"><path class="a" d="M20.273,98.94c-.182-.249-4.525-6.105-10.072-6.105S.312,98.691.129,98.94a.673.673,0,0,0,0,.794c.182.249,4.525,6.105,10.072,6.105s9.889-5.856,10.072-6.1A.672.672,0,0,0,20.273,98.94ZM10.2,104.493c-4.086,0-7.624-3.887-8.672-5.157C2.576,98.065,6.107,94.18,10.2,94.18s7.624,3.886,8.672,5.157C17.827,100.609,14.3,104.493,10.2,104.493Z" transform="translate(0 -92.835)"/></g></g><g transform="translate(6.165 95.301)"><g transform="translate(0 0)"><path class="a" d="M158.758,154.725a4.036,4.036,0,1,0,4.036,4.036A4.04,4.04,0,0,0,158.758,154.725Zm0,6.726a2.69,2.69,0,1,1,2.69-2.69A2.693,2.693,0,0,1,158.758,161.451Z" transform="translate(-154.722 -154.725)"/></g></g></g></svg>